<?xml version="1.0" encoding="UTF-8"?>
<svg viewBox="0 0 680 730" width="680" xmlns="http://www.w3.org/2000/svg">
<defs><marker id="ar" viewBox="0 0 10 10" refX="8" refY="5" markerWidth="5" markerHeight="5" orient="auto-start-reverse"><path d="M2 1L8 5L2 9" fill="none" stroke="#9C9889" stroke-width="1.5" stroke-linecap="round"/></marker></defs>

<!-- ===== BEDROOM LOFT ===== -->
<text font-family="system-ui, sans-serif" font-size="12" font-weight="600" fill="#6B6860" x="340" y="16" text-anchor="middle">BEDROOM LOFT — ~10′ × 8′6″</text>
<rect x="38" y="28" width="252" height="180" rx="4" fill="none" stroke="#2C2A25" stroke-width="1.5"/>

<!-- Ledges - bed length only (144px = 80") -->
<rect x="40" y="30" width="144" height="18" rx="2" fill="#F5EDD8"/>
<text font-family="system-ui, sans-serif" font-size="9" fill="#B8923E" x="112" y="43" text-anchor="middle">ledge ~11″</text>
<rect x="40" y="188" width="144" height="18" rx="2" fill="#F5EDD8"/>
<text font-family="system-ui, sans-serif" font-size="9" fill="#B8923E" x="112" y="201" text-anchor="middle">ledge ~11″</text>

<!-- King bed -->
<rect x="40" y="50" width="144" height="136" rx="4" fill="#EDEAF4" stroke="#7B6FA0" stroke-width="0.5"/>
<text font-family="Georgia, serif" font-size="13" fill="#7B6FA0" x="112" y="110" text-anchor="middle">King bed</text>
<text font-family="system-ui, sans-serif" font-size="10" fill="#9C9889" x="112" y="126" text-anchor="middle">80″ × 76″ · lift-up</text>
<text font-family="system-ui, sans-serif" font-size="10" fill="#9C9889" x="112" y="140" text-anchor="middle">storage below</text>

<!-- Pillows -->
<rect x="48" y="64" width="18" height="40" rx="6" fill="none" stroke="#9C9889" stroke-width="0.5" stroke-dasharray="2 2"/>
<rect x="48" y="126" width="18" height="40" rx="6" fill="none" stroke="#9C9889" stroke-width="0.5" stroke-dasharray="2 2"/>

<!-- Partial wall -->
<line x1="186" y1="50" x2="186" y2="188" stroke="#2C2A25" stroke-width="2.5"/>
<text font-family="system-ui, sans-serif" font-size="9" fill="#6B6860" x="186" y="44" text-anchor="middle">partial wall</text>

<!-- Standing area -->
<rect x="188" y="50" width="100" height="136" rx="3" fill="none" stroke="#9C9889" stroke-width="0.5" stroke-dasharray="4 3"/>
<text font-family="system-ui, sans-serif" font-size="10" fill="#9C9889" x="238" y="110" text-anchor="middle">standing ~28″</text>
<text font-family="system-ui, sans-serif" font-size="9" fill="#9C9889" x="238" y="126" text-anchor="middle">stairs arrive</text>

<!-- Gable window -->
<rect x="34" y="70" width="6" height="96" rx="2" fill="#B8923E" opacity="0.7"/>

<!-- Velux skylight -->
<rect x="85" y="90" width="54" height="54" rx="3" fill="none" stroke="#B8923E" stroke-width="0.8" stroke-dasharray="3 2"/>
<text font-family="system-ui, sans-serif" font-size="8" fill="#B8923E" x="112" y="121" text-anchor="middle">30×30 velux</text>

<!-- Optional storage loft -->
<rect x="405" y="28" width="234" height="110" rx="4" fill="none" stroke="#9C9889" stroke-width="0.5" stroke-dasharray="4 3"/>
<text font-family="system-ui, sans-serif" font-size="11" fill="#9C9889" x="522" y="78" text-anchor="middle">Optional storage loft</text>
<text font-family="system-ui, sans-serif" font-size="11" fill="#9C9889" x="522" y="96" text-anchor="middle">over living area</text>

<!-- ===== MAIN FLOOR ===== -->
<text font-family="system-ui, sans-serif" font-size="12" font-weight="600" fill="#6B6860" x="340" y="248" text-anchor="middle">MAIN FLOOR — 28′ × 8′6″</text>
<text font-family="system-ui, sans-serif" font-size="10" fill="#9C9889" x="38" y="268">interior wall</text>
<text font-family="system-ui, sans-serif" font-size="10" fill="#9C9889" x="643" y="268" text-anchor="end">porch side</text>
<rect x="38" y="278" width="605" height="184" rx="4" fill="none" stroke="#2C2A25" stroke-width="1.5"/>

<!-- Zone fills -->
<rect x="40" y="280" width="128" height="180" rx="2" fill="#EDEAF4"/>
<rect x="170" y="280" width="214" height="180" rx="2" fill="#E8F0E9"/>
<rect x="386" y="280" width="255" height="180" rx="2" fill="#E4EDF3"/>
<line x1="170" y1="278" x2="170" y2="462" stroke="#D8D4CB" stroke-width="1" stroke-dasharray="4 3"/>
<line x1="386" y1="278" x2="386" y2="462" stroke="#D8D4CB" stroke-width="1" stroke-dasharray="4 3"/>

<!-- Zone labels -->
<text font-family="Georgia, serif" font-size="14" fill="#7B6FA0" x="104" y="298" text-anchor="middle">Bath ~6′</text>
<text font-family="Georgia, serif" font-size="14" fill="#5B7A5E" x="277" y="298" text-anchor="middle">Kitchen ~10′</text>
<text font-family="Georgia, serif" font-size="14" fill="#5A7C96" x="514" y="298" text-anchor="middle">Living ~12′</text>

<!-- BATHROOM -->
<rect x="42" y="393" width="58" height="65" rx="3" fill="#E0DCF0" stroke="#9C9889" stroke-width="0.5"/>
<text font-family="system-ui, sans-serif" font-size="9" fill="#6B6860" x="71" y="426" text-anchor="middle">shower</text>
<text font-family="system-ui, sans-serif" font-size="8" fill="#9C9889" x="71" y="438" text-anchor="middle">32×36</text>
<line x1="100" y1="393" x2="100" y2="458" stroke="#9C9889" stroke-width="1"/>

<rect x="42" y="322" width="54" height="68" rx="3" fill="#E0DCF0" stroke="#9C9889" stroke-width="0.5"/>
<text font-family="system-ui, sans-serif" font-size="9" fill="#6B6860" x="69" y="360" text-anchor="middle">vanity</text>

<rect x="104" y="282" width="50" height="36" rx="3" fill="#E0DCF0" stroke="#9C9889" stroke-width="0.5"/>
<text font-family="system-ui, sans-serif" font-size="8" fill="#6B6860" x="129" y="304" text-anchor="middle">toilet</text>
<rect x="110" y="278" width="36" height="5" rx="2" fill="#B8923E" opacity="0.5"/>

<rect x="104" y="326" width="29" height="29" rx="3" fill="#E0DCF0" stroke="#9C9889" stroke-width="0.5"/>
<text font-family="system-ui, sans-serif" font-size="7" fill="#6B6860" x="118" y="344" text-anchor="middle">HW</text>

<!-- Pocket door centered -->
<rect x="160" y="360" width="10" height="50" rx="2" fill="#9C9889" opacity="0.3"/>
<text font-family="system-ui, sans-serif" font-size="7" fill="#9C9889" x="155" y="355" text-anchor="middle">pocket</text>
<text font-family="system-ui, sans-serif" font-size="7" fill="#9C9889" x="155" y="422" text-anchor="middle">door</text>

<!-- KITCHEN - stairs along interior wall -->
<rect x="172" y="280" width="260" height="58" rx="3" fill="#D4E4D6"/>
<text font-family="system-ui, sans-serif" font-size="10" fill="#5B7A5E" x="302" y="304" text-anchor="middle">alternating tread stairs (interior wall)</text>
<text font-family="system-ui, sans-serif" font-size="9" fill="#5B7A5E" x="302" y="320" text-anchor="middle">start living (R) → climb to loft (L)</text>
<text font-family="system-ui, sans-serif" font-size="8" fill="#5B7A5E" x="200" y="333" text-anchor="middle">fridge</text>
<text font-family="system-ui, sans-serif" font-size="8" fill="#5B7A5E" x="250" y="333" text-anchor="middle">W/D</text>
<text font-family="system-ui, sans-serif" font-size="8" fill="#5B7A5E" x="310" y="333" text-anchor="middle">pantry</text>
<text font-family="system-ui, sans-serif" font-size="8" fill="#5B7A5E" x="388" y="333" text-anchor="middle">cubbies</text>
<line x1="415" y1="296" x2="190" y2="296" stroke="#5B7A5E" stroke-width="1" marker-end="url(#ar)"/>

<!-- Porch-side counter with centered sink -->
<rect x="172" y="417" width="210" height="43" rx="3" fill="#D4E4D6" stroke="#9C9889" stroke-width="0.5"/>
<text font-family="system-ui, sans-serif" font-size="8" fill="#6B6860" x="200" y="442" text-anchor="middle">counter</text>
<rect x="245" y="421" width="36" height="35" rx="2" fill="#E8F0E9" stroke="#9C9889" stroke-width="0.3"/>
<text font-family="system-ui, sans-serif" font-size="8" fill="#6B6860" x="263" y="442" text-anchor="middle">sink</text>
<text font-family="system-ui, sans-serif" font-size="8" fill="#6B6860" x="310" y="442" text-anchor="middle">counter</text>
<rect x="335" y="421" width="22" height="35" rx="2" fill="#E8F0E9" stroke="#9C9889" stroke-width="0.3"/>
<text font-family="system-ui, sans-serif" font-size="7" fill="#6B6860" x="346" y="442" text-anchor="middle">cook</text>
<rect x="360" y="421" width="20" height="35" rx="2" fill="#E8F0E9" stroke="#9C9889" stroke-width="0.3"/>
<text font-family="system-ui, sans-serif" font-size="7" fill="#6B6860" x="370" y="442" text-anchor="middle">dish</text>

<!-- Kitchen window -->
<rect x="215" y="458" width="120" height="5" rx="2" fill="#B8923E" opacity="0.7"/>
<text font-family="system-ui, sans-serif" font-size="9" fill="#B8923E" x="275" y="476" text-anchor="middle">kitchen window / bar pass-through</text>

<!-- Kitchen skylight -->
<rect x="245" y="365" width="50" height="50" rx="3" fill="none" stroke="#B8923E" stroke-width="0.8" stroke-dasharray="3 2"/>
<text font-family="system-ui, sans-serif" font-size="8" fill="#B8923E" x="270" y="394" text-anchor="middle">30×30</text>

<!-- LIVING -->
<!-- Woodstove -->
<rect x="394" y="288" width="32" height="32" rx="3" fill="#F5E8E4" stroke="#C4705A" stroke-width="0.8"/>
<text font-family="system-ui, sans-serif" font-size="9" fill="#C4705A" x="410" y="308" text-anchor="middle">stove</text>
<line x1="410" y1="288" x2="410" y2="280" stroke="#C4705A" stroke-width="1.5"/>

<!-- Couch -->
<rect x="578" y="300" width="58" height="148" rx="4" fill="none" stroke="#9C9889" stroke-width="0.5" stroke-dasharray="3 2"/>
<text font-family="system-ui, sans-serif" font-size="10" fill="#6B6860" x="607" y="370" text-anchor="middle" transform="rotate(-90 607 370)">couch (full end wall)</text>

<!-- Lift-top coffee table -->
<rect x="480" y="362" width="72" height="44" rx="4" fill="none" stroke="#B8923E" stroke-width="0.8"/>
<text font-family="system-ui, sans-serif" font-size="8" fill="#B8923E" x="516" y="380" text-anchor="middle">lift-top table</text>
<text font-family="system-ui, sans-serif" font-size="7" fill="#B8923E" x="516" y="392" text-anchor="middle">coffee → dining</text>

<!-- Desk -->
<rect x="450" y="282" width="60" height="34" rx="3" fill="none" stroke="#9C9889" stroke-width="0.5" stroke-dasharray="3 2"/>
<text font-family="system-ui, sans-serif" font-size="10" fill="#6B6860" x="480" y="303" text-anchor="middle">desk</text>

<!-- Entry door -->
<rect x="386" y="456" width="40" height="7" rx="2" fill="#5A7C96" opacity="0.7"/>
<text font-family="system-ui, sans-serif" font-size="10" fill="#5A7C96" x="406" y="476" text-anchor="middle">entry</text>

<!-- Living windows -->
<rect x="450" y="456" width="86" height="5" rx="2" fill="#B8923E" opacity="0.5"/>
<text font-family="system-ui, sans-serif" font-size="8" fill="#B8923E" x="493" y="476" text-anchor="middle">window</text>
<rect x="637" y="330" width="5" height="100" rx="2" fill="#B8923E" opacity="0.5"/>
<text font-family="system-ui, sans-serif" font-size="8" fill="#B8923E" x="634" y="326" text-anchor="end">end window</text>

<!-- ===== PORCH ===== -->
<text font-family="system-ui, sans-serif" font-size="12" font-weight="600" fill="#6B6860" x="340" y="500" text-anchor="middle">COVERED PORCH — 28′ × ~8′ (modular bolt-together)</text>
<rect x="38" y="512" width="605" height="150" rx="6" fill="none" stroke="#5A7C96" stroke-width="1" stroke-dasharray="6 3"/>

<rect x="60" y="540" width="80" height="80" rx="18" fill="none" stroke="#9C9889" stroke-width="0.5" stroke-dasharray="3 2"/>
<text font-family="system-ui, sans-serif" font-size="9" fill="#9C9889" x="100" y="584" text-anchor="middle">soaking tub</text>

<rect x="215" y="518" width="120" height="20" rx="3" fill="none" stroke="#B8923E" stroke-width="0.5"/>
<text font-family="system-ui, sans-serif" font-size="9" fill="#B8923E" x="275" y="532" text-anchor="middle">bar counter</text>
<line x1="275" y1="463" x2="275" y2="516" stroke="#B8923E" stroke-width="0.5" stroke-dasharray="2 2" opacity="0.5"/>

<rect x="215" y="586" width="54" height="40" rx="3" fill="none" stroke="#9C9889" stroke-width="0.5"/>
<text font-family="system-ui, sans-serif" font-size="9" fill="#9C9889" x="242" y="610" text-anchor="middle">grill</text>

<rect x="440" y="540" width="130" height="74" rx="4" fill="none" stroke="#9C9889" stroke-width="0.5" stroke-dasharray="3 2"/>
<text font-family="system-ui, sans-serif" font-size="10" fill="#9C9889" x="505" y="581" text-anchor="middle">outdoor seating</text>

<!-- Porch section dividers -->
<line x1="240" y1="512" x2="240" y2="662" stroke="#9C9889" stroke-width="0.5" stroke-dasharray="6 4" opacity="0.3"/>
<line x1="420" y1="512" x2="420" y2="662" stroke="#9C9889" stroke-width="0.5" stroke-dasharray="6 4" opacity="0.3"/>
<text font-family="system-ui, sans-serif" font-size="8" fill="#9C9889" x="140" y="672" text-anchor="middle">section 1</text>
<text font-family="system-ui, sans-serif" font-size="8" fill="#9C9889" x="330" y="672" text-anchor="middle">section 2</text>
<text font-family="system-ui, sans-serif" font-size="8" fill="#9C9889" x="530" y="672" text-anchor="middle">section 3</text>

<!-- Roof notes -->
<text font-family="system-ui, sans-serif" font-size="10" fill="#9C9889" x="340" y="700" text-anchor="middle">shed roof: high side on porch → snow slides to interior</text>
<text font-family="system-ui, sans-serif" font-size="10" fill="#9C9889" x="340" y="716" text-anchor="middle">clerestory windows on high wall above porch roof</text>
</svg>
