<?xml version="1.0" encoding="UTF-8"?>
<svg viewBox="0 0 852 1080" width="852" xmlns="http://www.w3.org/2000/svg">
<defs>
  <marker id="dim-tick" viewBox="0 0 6 6" refX="3" refY="3" markerWidth="6" markerHeight="6" orient="auto">
    <line x1="3" y1="0" x2="3" y2="6" stroke="#9C9889" stroke-width="1"/>
  </marker>
  <style>
    .zone-hover { cursor: pointer; transition: opacity 0.15s; }
    .zone-hover:hover { opacity: 0.7; }
    .section-title { font-family: Georgia, serif; }
  </style>
</defs>
<rect width="852.0" height="1080.0" fill="#faf8f5"/>
<g transform="translate(60, 60)">
<!-- ===== MAIN FLOOR ===== -->
<g id="main-floor">
<text x="336.0" y="-36.0" font-family="Georgia, serif" font-size="14" font-weight="700" fill="#2C2A25" text-anchor="middle" dominant-baseline="central">MAIN FLOOR PLAN</text>
<text x="336.0" y="-16.0" font-family="system-ui, sans-serif" font-size="11" font-weight="500" fill="#9C9889" text-anchor="middle" dominant-baseline="central">28'-0" × 8'-6"</text>
<text x="688.0" y="24.0" font-family="system-ui, sans-serif" font-size="8" font-weight="500" fill="#9C9889" text-anchor="start" dominant-baseline="central">interior wall</text>
<text x="688.0" y="188.0" font-family="system-ui, sans-serif" font-size="8" font-weight="500" fill="#9C9889" text-anchor="start" dominant-baseline="central">porch side</text>
<rect x="7.0" y="7.0" width="137.0" height="190.0" fill="#EDEAF4" stroke="none" stroke-width="1" rx="0" opacity="1" class="zone-hover" data-zone="bathroom"/>
<rect x="144.0" y="7.0" width="240.0" height="190.0" fill="#E8F0E9" stroke="none" stroke-width="1" rx="0" opacity="1" class="zone-hover" data-zone="kitchen"/>
<rect x="384.0" y="7.0" width="281.0" height="190.0" fill="#E4EDF3" stroke="none" stroke-width="1" rx="0" opacity="1" class="zone-hover" data-zone="living"/>
<rect x="0.0" y="0.0" width="672.0" height="204.0" fill="none" stroke="#2C2A25" stroke-width="3" rx="0" opacity="1"/>
<line x1="144.0" y1="7.0" x2="144.0" y2="197.0" stroke="#6B6860" stroke-width="2"/>
<text x="72.0" y="90.0" font-family="Georgia, serif" font-size="13" font-weight="600" fill="#7B6FA0" text-anchor="middle" dominant-baseline="central">BATHROOM</text>
<text x="72.0" y="114.0" font-family="system-ui, sans-serif" font-size="10" font-weight="500" fill="#9C9889" text-anchor="middle" dominant-baseline="central">~6'</text>
<text x="264.0" y="90.0" font-family="Georgia, serif" font-size="13" font-weight="600" fill="#5B7A5E" text-anchor="middle" dominant-baseline="central">KITCHEN</text>
<text x="264.0" y="114.0" font-family="system-ui, sans-serif" font-size="10" font-weight="500" fill="#9C9889" text-anchor="middle" dominant-baseline="central">~10'</text>
<text x="528.0" y="90.0" font-family="Georgia, serif" font-size="13" font-weight="600" fill="#5A7C96" text-anchor="middle" dominant-baseline="central">LIVING</text>
<text x="528.0" y="114.0" font-family="system-ui, sans-serif" font-size="10" font-weight="500" fill="#9C9889" text-anchor="middle" dominant-baseline="central">~12'</text>
<!-- Bathroom fixtures -->
<rect x="7.0" y="133.0" width="72.0" height="64.0" fill="#E0DCF0" stroke="#7B6FA0" stroke-width="0.5" rx="2" opacity="1"/>
<text x="43.0" y="160.2" font-family="system-ui, sans-serif" font-size="8" font-weight="500" fill="#7B6FA0" text-anchor="middle"><tspan x="43.0" dy="0">SHOWER</tspan><tspan x="43.0" dy="9.6">32×36</tspan></text>
<line x1="79.0" y1="133.0" x2="79.0" y2="197.0" stroke="#7B6FA0" stroke-width="1.5"/>
<rect x="7.0" y="19.0" width="40.0" height="48.0" fill="#E0DCF0" stroke="#7B6FA0" stroke-width="0.5" rx="2" opacity="1"/>
<text x="27.0" y="43.0" font-family="system-ui, sans-serif" font-size="8" font-weight="500" fill="#7B6FA0" text-anchor="middle" dominant-baseline="central">VANITY</text>
<rect x="63.0" y="7.0" width="36.0" height="56.0" fill="#E0DCF0" stroke="#7B6FA0" stroke-width="0.5" rx="2" opacity="1"/>
<text x="81.0" y="35.0" font-family="system-ui, sans-serif" font-size="8" font-weight="500" fill="#7B6FA0" text-anchor="middle" dominant-baseline="central">TOILET</text>
<rect x="57.0" y="0.0" width="48.0" height="6.0" fill="#3B8BD4" stroke="none" stroke-width="1" rx="1" opacity="0.7"/>
<rect x="93.0" y="7.0" width="36.0" height="36.0" fill="#E8F0E9" stroke="#5B7A5E" stroke-width="0.5" rx="2" opacity="1"/>
<text x="111.0" y="25.0" font-family="system-ui, sans-serif" font-size="8" font-weight="500" fill="#5B7A5E" text-anchor="middle" dominant-baseline="central">HW</text>
<rect x="141.0" y="72.0" width="6.0" height="60.0" fill="#6B6860" stroke="none" stroke-width="1" rx="1" opacity="0.3"/>
<text x="156.0" y="97.8" font-family="system-ui, sans-serif" font-size="7" font-weight="500" fill="#9C9889" text-anchor="start"><tspan x="156.0" dy="0">pocket</tspan><tspan x="156.0" dy="8.4">door</tspan></text>
<!-- Kitchen fixtures -->
<rect x="152.0" y="7.0" width="201.6" height="56.0" fill="#F5EDD8" stroke="#C4956A" stroke-width="0.8" rx="2" opacity="1"/>
<rect x="353.6" y="7.0" width="134.4" height="56.0" fill="#F5EDD8" stroke="#C4956A" stroke-width="0.8" rx="0" opacity="0.5" stroke-dasharray="4 3"/>
<line x1="194.0" y1="7.0" x2="194.0" y2="63.0" stroke="#C4956A" stroke-width="0.5"/>
<line x1="236.0" y1="7.0" x2="236.0" y2="63.0" stroke="#C4956A" stroke-width="0.5"/>
<line x1="278.0" y1="7.0" x2="278.0" y2="63.0" stroke="#C4956A" stroke-width="0.5"/>
<line x1="320.0" y1="7.0" x2="320.0" y2="63.0" stroke="#C4956A" stroke-width="0.5"/>
<line x1="362.0" y1="7.0" x2="362.0" y2="63.0" stroke="#C4956A" stroke-width="0.5" stroke-dasharray="3 2"/>
<line x1="404.0" y1="7.0" x2="404.0" y2="63.0" stroke="#C4956A" stroke-width="0.5" stroke-dasharray="3 2"/>
<line x1="446.0" y1="7.0" x2="446.0" y2="63.0" stroke="#C4956A" stroke-width="0.5" stroke-dasharray="3 2"/>
<line x1="341.6" y1="7.0" x2="365.6" y2="63.0" stroke="#C4956A" stroke-width="1.5"/>
<text x="252.8" y="35.0" font-family="system-ui, sans-serif" font-size="8" font-weight="600" fill="#C4956A" text-anchor="middle" dominant-baseline="central">ALT. TREAD STAIRS</text>
<text x="192.0" y="79.0" font-family="system-ui, sans-serif" font-size="9" font-weight="600" fill="#C4956A" text-anchor="middle" dominant-baseline="central">← UP</text>
<text x="180.0" y="79.0" font-family="system-ui, sans-serif" font-size="7" font-weight="500" fill="#9C9889" text-anchor="middle" dominant-baseline="central">fridge</text>
<text x="232.0" y="79.0" font-family="system-ui, sans-serif" font-size="7" font-weight="500" fill="#9C9889" text-anchor="middle" dominant-baseline="central">W/D</text>
<text x="296.0" y="79.0" font-family="system-ui, sans-serif" font-size="7" font-weight="500" fill="#9C9889" text-anchor="middle" dominant-baseline="central">pantry</text>
<text x="412.0" y="79.0" font-family="system-ui, sans-serif" font-size="7" font-weight="500" fill="#9C9889" text-anchor="middle" dominant-baseline="central">cubbies</text>
<rect x="160.0" y="149.0" width="208.0" height="48.0" fill="#D4E4D6" stroke="#5B7A5E" stroke-width="0.5" rx="2" opacity="1"/>
<rect x="240.0" y="155.0" width="48.0" height="36.0" fill="#E8F0E9" stroke="#5B7A5E" stroke-width="0.5" rx="2" opacity="1"/>
<text x="264.0" y="173.0" font-family="system-ui, sans-serif" font-size="8" font-weight="500" fill="#5B7A5E" text-anchor="middle" dominant-baseline="central">SINK</text>
<rect x="308.0" y="153.0" width="24.0" height="40.0" fill="#E8F0E9" stroke="#5B7A5E" stroke-width="0.5" rx="2" opacity="1"/>
<text x="320.0" y="173.0" font-family="system-ui, sans-serif" font-size="8" font-weight="500" fill="#5B7A5E" text-anchor="middle" dominant-baseline="central">COOK</text>
<rect x="344.0" y="149.0" width="48.0" height="48.0" fill="#E8F0E9" stroke="#5B7A5E" stroke-width="0.5" rx="2" opacity="1"/>
<text x="368.0" y="173.0" font-family="system-ui, sans-serif" font-size="8" font-weight="500" fill="#5B7A5E" text-anchor="middle" dominant-baseline="central">DISH</text>
<rect x="184.0" y="197.0" width="160.0" height="6.0" fill="#3B8BD4" stroke="none" stroke-width="1" rx="1" opacity="0.7"/>
<text x="264.0" y="220.0" font-family="system-ui, sans-serif" font-size="8" font-weight="500" fill="#3B8BD4" text-anchor="middle" dominant-baseline="central">kitchen window / bar pass-through</text>
<rect x="234.0" y="72.0" width="60.0" height="60.0" fill="none" stroke="#3B8BD4" stroke-width="0.8" rx="2" opacity="1" stroke-dasharray="4 3"/>
<text x="264.0" y="97.8" font-family="system-ui, sans-serif" font-size="7" font-weight="500" fill="#3B8BD4" text-anchor="middle"><tspan x="264.0" dy="0">skylight</tspan><tspan x="264.0" dy="8.4">30×30</tspan></text>
<!-- Living fixtures -->
<rect x="396.0" y="79.0" width="32.0" height="32.0" fill="#F5E8E4" stroke="#C4705A" stroke-width="0.5" rx="2" opacity="1"/>
<text x="412.0" y="95.0" font-family="system-ui, sans-serif" font-size="8" font-weight="500" fill="#C4705A" text-anchor="middle" dominant-baseline="central">STOVE</text>
<circle cx="412.0" cy="71.0" r="5.0" fill="none" stroke="#C4705A" stroke-width="1"/>
<rect x="609.0" y="7.0" width="56.0" height="190.0" fill="#F5EDD8" stroke="#B8923E" stroke-width="0.5" rx="3" opacity="1"/>
<rect x="561.0" y="7.0" width="48.0" height="56.0" fill="#F5EDD8" stroke="#B8923E" stroke-width="0.5" rx="3" opacity="1"/>
<rect x="561.0" y="141.0" width="48.0" height="56.0" fill="#F5EDD8" stroke="#B8923E" stroke-width="0.5" rx="3" opacity="1"/>
<text x="637.0" y="102.0" font-family="system-ui, sans-serif" font-size="9" font-weight="600" fill="#B8923E" text-anchor="middle" dominant-baseline="central">U-COUCH</text>
<rect x="449.0" y="78.0" width="96.0" height="48.0" fill="none" stroke="#B8923E" stroke-width="0.8" rx="3" opacity="1"/>
<text x="497.0" y="102.0" font-family="system-ui, sans-serif" font-size="8" font-weight="500" fill="#B8923E" text-anchor="middle" dominant-baseline="central">lift-top table</text>
<rect x="444.0" y="79.0" width="96.0" height="48.0" fill="none" stroke="#9C9889" stroke-width="0.5" rx="2" opacity="1" stroke-dasharray="4 3"/>
<text x="492.0" y="103.0" font-family="system-ui, sans-serif" font-size="9" font-weight="500" fill="#9C9889" text-anchor="middle" dominant-baseline="central">DESK</text>
<rect x="400.0" y="197.0" width="64.0" height="7.0" fill="#5A7C96" stroke="none" stroke-width="1" rx="1" opacity="0.7"/>
<text x="432.0" y="220.0" font-family="system-ui, sans-serif" font-size="9" font-weight="600" fill="#5A7C96" text-anchor="middle" dominant-baseline="central">ENTRY</text>
<rect x="496.0" y="197.0" width="120.0" height="6.0" fill="#3B8BD4" stroke="none" stroke-width="1" rx="1" opacity="0.7"/>
<text x="556.0" y="220.0" font-family="system-ui, sans-serif" font-size="7" font-weight="500" fill="#3B8BD4" text-anchor="middle" dominant-baseline="central">window</text>
<rect x="665.0" y="48.0" width="6.0" height="120.0" fill="#3B8BD4" stroke="none" stroke-width="1" rx="1" opacity="0.7"/>
<text x="684.0" y="103.8" font-family="system-ui, sans-serif" font-size="7" font-weight="500" fill="#3B8BD4" text-anchor="start"><tspan x="684.0" dy="0">end</tspan><tspan x="684.0" dy="8.4">window</tspan></text>
<rect x="0.0" y="48.0" width="6.0" height="96.0" fill="#3B8BD4" stroke="none" stroke-width="1" rx="1" opacity="0.7"/>
<line x1="424.0" y1="15.0" x2="424.0" y2="189.0" stroke="#B8923E" stroke-width="1" stroke-dasharray="6 4"/>
<text x="434.0" y="168.8" font-family="system-ui, sans-serif" font-size="7" font-weight="500" fill="#B8923E" text-anchor="start"><tspan x="434.0" dy="0">projector</tspan><tspan x="434.0" dy="8.4">screen</tspan></text>
<!-- Dimensions -->
<line x1="0.0" y1="204.0" x2="0.0" y2="232.0" stroke="#9C9889" stroke-width="0.5"/>
<line x1="672.0" y1="204.0" x2="672.0" y2="232.0" stroke="#9C9889" stroke-width="0.5"/>
<line x1="0.0" y1="232.0" x2="672.0" y2="232.0" stroke="#9C9889" stroke-width="0.8" marker-start="url(#dim-tick)" marker-end="url(#dim-tick)"/>
<text x="336.0" y="228.0" font-family="system-ui, sans-serif" font-size="10" fill="#9C9889" text-anchor="middle">28'-0"</text>
<line x1="0.0" y1="0.0" x2="-28.0" y2="0.0" stroke="#9C9889" stroke-width="0.5"/>
<line x1="0.0" y1="204.0" x2="-28.0" y2="204.0" stroke="#9C9889" stroke-width="0.5"/>
<line x1="-28.0" y1="0.0" x2="-28.0" y2="204.0" stroke="#9C9889" stroke-width="0.8" marker-start="url(#dim-tick)" marker-end="url(#dim-tick)"/>
<text x="-32.0" y="102.0" font-family="system-ui, sans-serif" font-size="10" fill="#9C9889" text-anchor="middle" transform="rotate(-90 -32.0 102.0)">8'-6"</text>
<line x1="0.0" y1="0.0" x2="0.0" y2="-20.0" stroke="#9C9889" stroke-width="0.5"/>
<line x1="144.0" y1="0.0" x2="144.0" y2="-20.0" stroke="#9C9889" stroke-width="0.5"/>
<line x1="0.0" y1="-20.0" x2="144.0" y2="-20.0" stroke="#9C9889" stroke-width="0.8" marker-start="url(#dim-tick)" marker-end="url(#dim-tick)"/>
<text x="72.0" y="-24.0" font-family="system-ui, sans-serif" font-size="10" fill="#9C9889" text-anchor="middle">6'</text>
<line x1="144.0" y1="0.0" x2="144.0" y2="-20.0" stroke="#9C9889" stroke-width="0.5"/>
<line x1="384.0" y1="0.0" x2="384.0" y2="-20.0" stroke="#9C9889" stroke-width="0.5"/>
<line x1="144.0" y1="-20.0" x2="384.0" y2="-20.0" stroke="#9C9889" stroke-width="0.8" marker-start="url(#dim-tick)" marker-end="url(#dim-tick)"/>
<text x="264.0" y="-24.0" font-family="system-ui, sans-serif" font-size="10" fill="#9C9889" text-anchor="middle">10'</text>
<line x1="384.0" y1="0.0" x2="384.0" y2="-20.0" stroke="#9C9889" stroke-width="0.5"/>
<line x1="672.0" y1="0.0" x2="672.0" y2="-20.0" stroke="#9C9889" stroke-width="0.5"/>
<line x1="384.0" y1="-20.0" x2="672.0" y2="-20.0" stroke="#9C9889" stroke-width="0.8" marker-start="url(#dim-tick)" marker-end="url(#dim-tick)"/>
<text x="528.0" y="-24.0" font-family="system-ui, sans-serif" font-size="10" fill="#9C9889" text-anchor="middle">12'</text>
</g>
<!-- ===== BEDROOM LOFT ===== -->
<g id="loft">
<text x="120.0" y="328.0" font-family="Georgia, serif" font-size="14" font-weight="700" fill="#2C2A25" text-anchor="middle" dominant-baseline="central">BEDROOM LOFT</text>
<text x="120.0" y="348.0" font-family="system-ui, sans-serif" font-size="11" font-weight="500" fill="#9C9889" text-anchor="middle" dominant-baseline="central">~10'-0" × 8'-6"</text>
<rect x="7.0" y="371.0" width="226.0" height="190.0" fill="#F9F7F4" stroke="none" stroke-width="1" rx="0" opacity="1"/>
<rect x="0.0" y="364.0" width="240.0" height="204.0" fill="none" stroke="#2C2A25" stroke-width="3" rx="0" opacity="1"/>
<rect x="11.0" y="390.0" width="160.0" height="152.0" fill="#EDEAF4" stroke="#7B6FA0" stroke-width="0.8" rx="4" opacity="1"/>
<text x="91.0" y="459.4" font-family="Georgia, serif" font-size="11" font-weight="600" fill="#7B6FA0" text-anchor="middle"><tspan x="91.0" dy="0">KING BED</tspan><tspan x="91.0" dy="13.2">80" × 76"</tspan></text>
<rect x="19.0" y="414.0" width="20.0" height="44.0" fill="none" stroke="#9C9889" stroke-width="0.5" rx="5" opacity="1" stroke-dasharray="3 2"/>
<rect x="19.0" y="474.0" width="20.0" height="44.0" fill="none" stroke="#9C9889" stroke-width="0.5" rx="5" opacity="1" stroke-dasharray="3 2"/>
<rect x="11.0" y="368.0" width="160.0" height="22.0" fill="#F5EDD8" stroke="#B8923E" stroke-width="0.5" rx="1" opacity="1"/>
<text x="91.0" y="379.0" font-family="system-ui, sans-serif" font-size="7" font-weight="500" fill="#B8923E" text-anchor="middle" dominant-baseline="central">ledge ~11"</text>
<rect x="11.0" y="542.0" width="160.0" height="22.0" fill="#F5EDD8" stroke="#B8923E" stroke-width="0.5" rx="1" opacity="1"/>
<text x="91.0" y="553.0" font-family="system-ui, sans-serif" font-size="7" font-weight="500" fill="#B8923E" text-anchor="middle" dominant-baseline="central">ledge ~11"</text>
<line x1="179.0" y1="371.0" x2="179.0" y2="561.0" stroke="#2C2A25" stroke-width="3"/>
<text x="179.0" y="358.0" font-family="system-ui, sans-serif" font-size="8" font-weight="500" fill="#9C9889" text-anchor="middle" dominant-baseline="central">partial wall</text>
<rect x="187.0" y="371.0" width="46.0" height="190.0" fill="none" stroke="#9C9889" stroke-width="0.5" rx="2" opacity="1" stroke-dasharray="4 3"/>
<text x="210.0" y="450.0" font-family="system-ui, sans-serif" font-size="9" font-weight="500" fill="#9C9889" text-anchor="middle" dominant-baseline="central">standing ~28"</text>
<text x="210.0" y="474.0" font-family="system-ui, sans-serif" font-size="10" font-weight="600" fill="#C4956A" text-anchor="middle" dominant-baseline="central">DN →</text>
<text x="210.0" y="494.0" font-family="system-ui, sans-serif" font-size="7" font-weight="500" fill="#C4956A" text-anchor="middle" dominant-baseline="central">stairs to main floor</text>
<rect x="187.0" y="371.0" width="46.0" height="190.0" fill="none" stroke="#C4956A" stroke-width="1" rx="2" opacity="1" stroke-dasharray="6 3"/>
<line x1="187.0" y1="371.0" x2="187.0" y2="561.0" stroke="#7B6FA0" stroke-width="1" stroke-dasharray="3 3"/>
<rect x="0.0" y="400.0" width="6.0" height="120.0" fill="#3B8BD4" stroke="none" stroke-width="1" rx="1" opacity="0.7"/>
<rect x="61.0" y="436.0" width="60.0" height="60.0" fill="none" stroke="#3B8BD4" stroke-width="0.8" rx="2" opacity="1" stroke-dasharray="4 3"/>
<text x="91.0" y="461.2" font-family="system-ui, sans-serif" font-size="8" font-weight="500" fill="#3B8BD4" text-anchor="middle"><tspan x="91.0" dy="0">VELUX</tspan><tspan x="91.0" dy="9.6">30×30</tspan></text>
<line x1="0.0" y1="568.0" x2="0.0" y2="588.0" stroke="#9C9889" stroke-width="0.5"/>
<line x1="240.0" y1="568.0" x2="240.0" y2="588.0" stroke="#9C9889" stroke-width="0.5"/>
<line x1="0.0" y1="588.0" x2="240.0" y2="588.0" stroke="#9C9889" stroke-width="0.8" marker-start="url(#dim-tick)" marker-end="url(#dim-tick)"/>
<text x="120.0" y="584.0" font-family="system-ui, sans-serif" font-size="10" fill="#9C9889" text-anchor="middle">10'-0"</text>
<line x1="0.0" y1="364.0" x2="-20.0" y2="364.0" stroke="#9C9889" stroke-width="0.5"/>
<line x1="0.0" y1="568.0" x2="-20.0" y2="568.0" stroke="#9C9889" stroke-width="0.5"/>
<line x1="-20.0" y1="364.0" x2="-20.0" y2="568.0" stroke="#9C9889" stroke-width="0.8" marker-start="url(#dim-tick)" marker-end="url(#dim-tick)"/>
<text x="-24.0" y="466.0" font-family="system-ui, sans-serif" font-size="10" fill="#9C9889" text-anchor="middle" transform="rotate(-90 -24.0 466.0)">8'-6"</text>
<line x1="11.0" y1="364.0" x2="11.0" y2="348.0" stroke="#9C9889" stroke-width="0.5"/>
<line x1="171.0" y1="364.0" x2="171.0" y2="348.0" stroke="#9C9889" stroke-width="0.5"/>
<line x1="11.0" y1="348.0" x2="171.0" y2="348.0" stroke="#9C9889" stroke-width="0.8" marker-start="url(#dim-tick)" marker-end="url(#dim-tick)"/>
<text x="91.0" y="344.0" font-family="system-ui, sans-serif" font-size="10" fill="#9C9889" text-anchor="middle">80"</text>
</g>
<!-- ===== COVERED PORCH ===== -->
<g id="porch">
<text x="336.0" y="692.0" font-family="Georgia, serif" font-size="14" font-weight="700" fill="#2C2A25" text-anchor="middle" dominant-baseline="central">COVERED PORCH</text>
<text x="336.0" y="712.0" font-family="system-ui, sans-serif" font-size="11" font-weight="500" fill="#9C9889" text-anchor="middle" dominant-baseline="central">28'-0" × ~8'-0"  ·  modular bolt-together</text>
<rect x="0.0" y="728.0" width="672.0" height="192.0" fill="#F5F3EF" stroke="#5A7C96" stroke-width="1.5" rx="4" opacity="1" stroke-dasharray="8 4"/>
<line x1="224.0" y1="728.0" x2="224.0" y2="920.0" stroke="#9C9889" stroke-width="0.5" stroke-dasharray="6 4"/>
<line x1="448.0" y1="728.0" x2="448.0" y2="920.0" stroke="#9C9889" stroke-width="0.5" stroke-dasharray="6 4"/>
<text x="112.0" y="908.0" font-family="system-ui, sans-serif" font-size="8" font-weight="500" fill="#9C9889" text-anchor="middle" dominant-baseline="central">section 1</text>
<text x="336.0" y="908.0" font-family="system-ui, sans-serif" font-size="8" font-weight="500" fill="#9C9889" text-anchor="middle" dominant-baseline="central">section 2</text>
<text x="560.0" y="908.0" font-family="system-ui, sans-serif" font-size="8" font-weight="500" fill="#9C9889" text-anchor="middle" dominant-baseline="central">section 3</text>
<circle cx="112.0" cy="824.0" r="56.0" fill="none" stroke="#9C9889" stroke-width="0.5"/>
<text x="112.0" y="818.6" font-family="system-ui, sans-serif" font-size="9" font-weight="500" fill="#9C9889" text-anchor="middle"><tspan x="112.0" dy="0">SOAKING</tspan><tspan x="112.0" dy="10.799999999999999">TUB</tspan></text>
<rect x="248.0" y="744.0" width="176.0" height="32.0" fill="none" stroke="#B8923E" stroke-width="0.5" rx="2" opacity="1"/>
<text x="336.0" y="760.0" font-family="system-ui, sans-serif" font-size="8" font-weight="500" fill="#B8923E" text-anchor="middle" dominant-baseline="central">BAR COUNTER</text>
<rect x="272.0" y="848.0" width="72.0" height="48.0" fill="none" stroke="#9C9889" stroke-width="0.5" rx="2" opacity="1"/>
<text x="308.0" y="872.0" font-family="system-ui, sans-serif" font-size="8" font-weight="500" fill="#9C9889" text-anchor="middle" dominant-baseline="central">GRILL</text>
<rect x="484.0" y="764.0" width="152.0" height="120.0" fill="none" stroke="#9C9889" stroke-width="0.5" rx="3" opacity="1" stroke-dasharray="4 3"/>
<text x="560.0" y="818.0" font-family="system-ui, sans-serif" font-size="10" font-weight="500" fill="#9C9889" text-anchor="middle"><tspan x="560.0" dy="0">OUTDOOR</tspan><tspan x="560.0" dy="12.0">SEATING</tspan></text>
<rect x="8.5" y="916.5" width="7.0" height="7.0" fill="#6B6860" stroke="none" stroke-width="1" rx="0.5" opacity="1"/>
<rect x="220.5" y="916.5" width="7.0" height="7.0" fill="#6B6860" stroke="none" stroke-width="1" rx="0.5" opacity="1"/>
<rect x="444.5" y="916.5" width="7.0" height="7.0" fill="#6B6860" stroke="none" stroke-width="1" rx="0.5" opacity="1"/>
<rect x="656.5" y="916.5" width="7.0" height="7.0" fill="#6B6860" stroke="none" stroke-width="1" rx="0.5" opacity="1"/>
<line x1="0.0" y1="920.0" x2="0.0" y2="940.0" stroke="#9C9889" stroke-width="0.5"/>
<line x1="672.0" y1="920.0" x2="672.0" y2="940.0" stroke="#9C9889" stroke-width="0.5"/>
<line x1="0.0" y1="940.0" x2="672.0" y2="940.0" stroke="#9C9889" stroke-width="0.8" marker-start="url(#dim-tick)" marker-end="url(#dim-tick)"/>
<text x="336.0" y="936.0" font-family="system-ui, sans-serif" font-size="10" fill="#9C9889" text-anchor="middle">28'-0"</text>
<line x1="0.0" y1="728.0" x2="-20.0" y2="728.0" stroke="#9C9889" stroke-width="0.5"/>
<line x1="0.0" y1="920.0" x2="-20.0" y2="920.0" stroke="#9C9889" stroke-width="0.5"/>
<line x1="-20.0" y1="728.0" x2="-20.0" y2="920.0" stroke="#9C9889" stroke-width="0.8" marker-start="url(#dim-tick)" marker-end="url(#dim-tick)"/>
<text x="-24.0" y="824.0" font-family="system-ui, sans-serif" font-size="10" fill="#9C9889" text-anchor="middle" transform="rotate(-90 -24.0 824.0)">~8'-0"</text>
</g>
</g>
</svg>